<svg width="78" height="80" viewBox="0 0 78 80" fill="none" xmlns="http://www.w3.org/2000/svg">
<path d="M74.0804 17.5274L59.7723 3.16358C55.5542 -1.05453 50.4813 -1.05453 46.2818 3.16358L24.7825 24.7001C23.4021 26.0772 23.3997 28.3126 24.7769 29.693C24.7787 29.6949 24.7806 29.6968 24.7825 29.6986L29.6138 34.5299L23.9091 40.1788C23.3656 40.7231 23.3656 41.6043 23.9091 42.1485L25.3585 43.5979L1.20195 67.7545C0.945056 68.0109 0.798259 68.3577 0.793149 68.7207L0.755985 78.5878C0.745765 79.3573 1.36129 79.9895 2.13082 79.9998C2.13709 79.9998 2.14336 79.9998 2.14963 79.9998V79.9626H9.95406C10.3236 79.9624 10.6778 79.8153 10.9389 79.5538L15.3242 75.1684C15.5767 74.9164 15.7231 74.5773 15.733 74.2208L15.8631 69.7425L19.5795 70.2071C20.003 70.2603 20.4275 70.1165 20.7316 69.8168L23.5003 67.0481C23.7321 66.8198 23.8768 66.5174 23.9091 66.1934L24.2993 62.1611L29.1678 61.0833C29.7197 60.9644 30.1452 60.524 30.2456 59.9684L31.2118 54.5982L36.4148 53.7806C36.7033 53.7337 36.9699 53.5971 37.1766 53.3904L42.8627 47.7043L47.694 52.5356C49.0712 53.916 51.3066 53.9184 52.687 52.5412C52.6889 52.5393 52.6907 52.5375 52.6926 52.5356L74.0804 31.0177C78.2985 26.7998 78.2985 21.727 74.0804 17.5274ZM35.5043 51.1236L29.781 52.0341C29.1948 52.128 28.7323 52.583 28.6289 53.1676L27.6255 58.5378L22.6827 59.6342C22.0964 59.7677 21.6621 60.262 21.6049 60.8606L21.159 65.4132L19.3008 67.2713L14.6181 66.7696C13.8539 66.677 13.1594 67.2209 13.0665 67.9851C13.0617 68.0258 13.0584 68.0667 13.057 68.1075L12.9084 73.5706L9.32204 77.157H3.46872L3.6917 69.2968L28.3314 44.5828C28.8749 44.0386 28.8749 43.1573 28.3314 42.6131L26.882 41.1637L31.5832 36.4625L40.8742 45.7534L35.5043 51.1236ZM72.2222 29.0483L50.6671 50.529C50.3791 50.8214 49.9085 50.8251 49.6161 50.5371C49.6133 50.5346 49.6108 50.5318 49.608 50.529L43.7918 44.7314L32.6426 33.5823L26.8265 27.7661C26.4783 27.5487 26.3724 27.0902 26.5898 26.742C26.6335 26.6723 26.6883 26.6101 26.7522 26.5583L48.2515 5.13327C49.4523 3.73799 51.1702 2.89251 53.0085 2.79194C54.8527 2.90947 56.576 3.751 57.8026 5.13327L72.2222 19.4971C74.3963 21.6712 76.1616 25.0717 72.2222 29.0483Z" fill="white" stroke="white" stroke-width="0.713663"/>
</svg>
